<?xml version="1.0" encoding="utf-8"?>
<!-- Generator: Adobe Illustrator 16.0.0, SVG Export Plug-In . SVG Version: 6.00 Build 0)  -->
<!DOCTYPE svg PUBLIC "-//W3C//DTD SVG 1.1//EN" "http://www.w3.org/Graphics/SVG/1.1/DTD/svg11.dtd">
<svg version="1.1" xmlns="http://www.w3.org/2000/svg" xmlns:xlink="http://www.w3.org/1999/xlink" x="0px" y="0px" width="1400px"
	 height="980px" viewBox="0 0 1400 980" enable-background="new 0 0 1400 980" xml:space="preserve">
<g id="BACKGROUND">
	<rect x="-10.97" y="-10.733" fill="#F2F2F3" width="1421.929" height="1000.45"/>
</g>
<g id="OBJECTS">
	<rect x="204.076" y="755.594" fill="#A2AAB2" width="1027.434" height="109.346"/>
	<path fill="#64C4DD" d="M1222.877,761.222H202.617c-42.68-301.67,200.3-392,348.85-404.28
		c174.18-14.41,193.3-190.37,417.919-190.48c1.91,0,3.841,0.02,5.78,0.04c29.891,0.38,56.28,6.63,79.57,17.58
		c12.93,6.08,24.91,13.6,36,22.37c27.43,21.69,49.43,50.99,67.04,84.86C1248.487,465.731,1222.877,761.222,1222.877,761.222z"/>
	<path fill="#86D3E5" d="M1157.777,291.312v469.91h-103.04v-577.14c12.93,6.08,24.91,13.6,36,22.37
		C1118.167,228.142,1140.167,257.441,1157.777,291.312z"/>
	<path fill="#41B9D6" d="M1090.737,206.452v554.77H969.387v-594.76c1.91,0,3.841,0.02,5.78,0.04c29.891,0.38,56.28,6.63,79.57,17.58
		C1067.667,190.162,1079.647,197.682,1090.737,206.452z"/>
	<g>
		<path fill="none" stroke="#3B612E" stroke-miterlimit="10" d="M1270.666,608.267c0,0-39.077,7.425-57.748,79.483"/>
		<line fill="none" stroke="#3B612E" stroke-miterlimit="10" x1="1203.102" y1="575.301" x2="1199.643" y2="681.991"/>
		<path fill="none" stroke="#3B612E" stroke-miterlimit="10" d="M1169.401,611.758c0,0,9.37,54.913,14.609,63.839"/>
		<path fill="#CED5DB" d="M1273.021,717.999v5.109c0,26.49-21.46,47.96-47.95,47.96h-39.43c-26.48,0-47.95-21.47-47.95-47.96v-5.109
			c0-35.051,34.07-32.13,34.07-64.261h67.189C1238.95,691.229,1273.021,681.979,1273.021,717.999z"/>
		<path fill="#5D903F" d="M1286.477,656.623c-1.095-2.522-2.189-5.045-3.284-7.568l0.789,0.154c1.265,0.332,2.451,0.956,3.44,1.811
			c0.464,0.4,0.884,0.861,1.225,1.37c4.594-10.066,5.771-21.676,3.195-32.443c-1.142-4.771-3.107-9.542-6.765-12.812
			c-3.697-3.304-9.007-4.632-13.853-3.71c-2.8,0.533-3.724,1.707-6.169-0.093c-2.122-1.562-3.667-3.797-5.776-5.387
			c-3.714-2.798-8.532-3.554-13.139-4.19c-3.389-0.468-7.132-0.84-9.959,1.085c-2.872,1.956-3.877,5.652-4.675,9.035
			c-1.351,5.728-2.709,11.639-1.751,17.445c1.27,7.696,6.465,14.193,12.318,19.35c5.932,5.227,12.733,9.508,19.065,14.25
			c0.085-0.986,0.296-1.972,0.509-2.94c0.604-2.745,0.695-7.944,2.246-10.259c1.902-2.842,2.379,1.603,2.228,3.557
			c-0.15,1.948-0.729,3.841-0.948,5.783c-0.097,0.854-0.123,1.717-0.115,2.577c0.014,1.566,0.149,3.132,0.393,4.68
			c3.098,2.581,5.995,5.364,8.499,8.554c1.788,2.276,3.484,4.839,6.13,6.015C1279.91,666.977,1283.523,661.814,1286.477,656.623z
			 M1235.525,599.129c0.482-0.384,1.093-0.563,1.692-0.709c6.534-1.576,10.643,1.187,16.538,3.338
			c1.086,0.396,2.246,0.85,2.883,1.814c-3.672-0.14-7.24-1.201-10.874-1.74c-3.635-0.539-7.559-0.5-10.718,1.375
			c-0.211,0.126-0.503,0.252-0.676,0.078c-0.105-0.105-0.106-0.273-0.101-0.422C1234.324,601.507,1234.463,599.974,1235.525,599.129
			z M1240.587,617.765c-1.237,2.005-2.476,4.011-3.713,6.016c-0.203,0.329-0.409,0.662-0.692,0.926
			c-0.426,0.396-1.016,0.608-1.597,0.574c-1.018-0.059-1.878-0.845-2.322-1.763s-0.549-1.957-0.647-2.973
			c-0.144-1.484-0.262-3.086,0.506-4.364c0.61-1.019,1.684-1.653,2.712-2.246c2.879-1.66,6.068-3.424,9.415-3.888
			c2.436-0.338,5.748,1.77,2.201,3.646c-1.118,0.592-2.457,0.692-3.535,1.355C1241.888,615.679,1241.219,616.74,1240.587,617.765z
			 M1252.014,626.139c-2.275,4.151-2.29,9.535-5.59,12.93c-1.461,0.254-3.011-0.033-4.283-0.795
			c-0.177-0.105-0.354-0.228-0.449-0.41c-0.12-0.234-0.077-0.517-0.031-0.776c0.202-1.137,0.404-2.273,0.605-3.41
			c0.386-2.169,0.799-4.409,2.035-6.232c0.803-1.184,1.908-2.122,3-3.046c1.151-0.974,2.302-1.947,3.453-2.92
			c0.828-0.701,4.557-3.874,5.4-2.279C1256.816,620.449,1252.596,625.079,1252.014,626.139z M1256.893,632.72
			c-0.361,0.804-0.956,1.748-1.831,1.642c-0.761-0.092-1.182-1.018-1.025-1.768s0.704-1.348,1.231-1.905
			c1.427-1.533,2.859-3.317,4.486-4.574C1259.089,628.367,1257.863,630.563,1256.893,632.72z M1271.618,610.929
			c-0.342-0.266-0.686-0.682-0.528-1.084c0.152-0.394,0.663-0.476,1.085-0.497c0.623-0.032,1.246-0.064,1.868-0.096
			c0.393-0.02,0.963,0.317,0.677,0.586l1.894-0.666c-0.064,1.058-0.357,2.101-0.854,3.037
			C1274.285,612.298,1272.784,611.834,1271.618,610.929z M1279.86,641.023c-2.269-3.917-6.008-6.8-8.396-10.644
			c-0.679-1.093-1.253-2.287-1.375-3.567c-0.808-8.445,14.044,2.309,16.354,4.089c0.736,0.566,1.488,1.15,1.978,1.94
			c1.065,1.718,0.644,3.93,0.187,5.899c-0.54,2.326-1.093,4.686-2.232,6.784c-0.369,0.681-0.922,1.402-1.696,1.419
			c-0.462,0.011-0.888-0.243-1.249-0.531C1281.733,645.059,1280.948,642.901,1279.86,641.023z"/>
		<path fill="#1C224F" d="M1189.88,608.046c-1.841-4.091-6.015-6.752-10.36-7.862c-4.143-1.059-9.781,0.345-13.439-2.096
			c-4.031-2.69-4.302-7.978-9.611-9.555c-2.108-0.627-4.35-0.591-6.549-0.549c-5.182,0.099-10.849,0.378-14.709,3.836
			c-1.791,1.605-2.999,3.748-4.127,5.873c-2.023,3.814-3.903,7.728-5.166,11.856c-2.539,8.301-2.493,17.13-3.087,25.79
			s-1.979,17.627-6.892,24.784c5.318-0.341,10.621-0.911,15.893-1.687c3.049-4.93,6.315-10.271,6.896-11.001
			c0.576,1.922-2.026,5.788-2.86,7.638c-0.442,0.979-0.884,1.959-1.326,2.938c8.644-1.394,17.196-3.348,25.575-5.885
			c4.906-1.485,9.841-3.221,13.949-6.276c0.218-2.009,0.436-4.018,0.653-6.027c0.095-0.873,0.189-1.751,0.132-2.627
			c-0.121-1.874-0.925-3.628-1.752-5.314c-0.995-2.03-2.055-4.061-2.56-6.265c-1.414-6.175,2.502-6.812,4.635-1.416
			c1.979,5.011,3.167,10.359,3.554,15.731c0.034,0.467,0.057,0.939,0.061,1.412c3.75-4.489,6.334-10.034,8.716-15.449
			C1189.998,620.228,1192.422,613.692,1189.88,608.046z M1125.739,649.59c-1.14,0.892-2.365,1.819-3.806,1.949
			c1.443-1.417,2.938-2.914,3.56-4.84c0.474-1.466,2.54-7.674,4.476-4.31C1131.488,645.029,1127.375,648.31,1125.739,649.59z
			 M1133.979,631.613c-3.069,3.047-6.374,5.855-9.876,8.394c0.528-1.564,1.058-3.129,1.586-4.692
			c0.841-2.487,1.732-5.061,3.55-6.954C1133.06,624.38,1139.251,626.379,1133.979,631.613z M1147.621,614.37
			c-0.752,2.001-3.122,3.236-5.193,2.706c-1.135-0.29-2.234-1.263-2.118-2.429c2.649-0.454,5.299-0.909,7.948-1.363L1147.621,614.37
			z M1146.077,611.059c-3.756,1.188-7.726,1.513-11.562,2.409c-3.836,0.897-7.714,2.5-10.15,5.596
			c-0.077-1.772,1.222-3.269,2.439-4.559c1.134-1.202,2.269-2.403,3.402-3.605c0.664-0.703,1.345-1.419,2.198-1.873
			c1.079-0.573,2.336-0.679,3.511-1.012c2.02-0.573,3.771-1.811,5.559-2.913c2.302-1.421,7.835-3.957,9.707-0.427
			C1152.845,607.81,1148.443,610.31,1146.077,611.059z M1154.221,594.632c-0.746,0.229-1.483-0.312-2.117-0.768
			c-1.648-1.185-3.567-1.989-5.566-2.338c0.746-1.1,2.141-1.614,3.47-1.632s2.623,0.39,3.89,0.792
			c0.223,0.07,0.468,0.175,0.657,0.317l-0.136-0.251c0.781-0.189,1.1,0.976,1.001,1.773
			C1155.314,593.376,1155.039,594.381,1154.221,594.632z M1156.923,639c-0.579,2.277-1.158,4.555-1.737,6.831
			c-0.562,2.208-1.164,4.498-2.633,6.239c-1.469,1.742-4.074,2.751-6.09,1.689c0.202-0.557,0.546-1.049,0.836-1.565
			c0.951-1.695,1.32-3.646,1.675-5.559c0.676-3.642,1.007-16.65,4.647-18.239C1159.612,625.783,1157.55,636.536,1156.923,639z
			 M1176.366,610.219c-0.005-0.427,0.082-0.838,0.203-1.246c-0.103-0.419-0.336-0.83-0.626-1.147
			c-0.595-0.651-1.392-1.113-1.891-1.84s-0.54-1.907,0.232-2.332c0.539-0.296,1.209-0.09,1.767,0.17l-0.358,0.375
			c1.169-0.023,1.758,1.489,1.542,2.639c-0.137,0.729-0.455,1.426-0.666,2.136C1176.677,609.412,1176.641,609.86,1176.366,610.219z"
			/>
		<path fill="#6A9C4B" d="M1191.965,633.183c0.248,0.721,1.247,5.29,2.431,9.494c0.32-0.093,0.641-0.189,0.961-0.275
			c5.356-1.434,10.856-2.146,16.37-2.813c-0.425-5.724-0.531-11.479-0.637-17.221c-0.035-1.898-1.338-10.383,0.258-11.414
			c3.373-2.18,4.525,3.486,5.224,5.462c2.528,7.146,5.028,14.301,7.534,21.453c0.255-0.045,0.512-0.081,0.766-0.129
			c4.846-0.905,9.743-2.292,14.201-4.408c-1.154-2.18-2.644-4.24-4.029-6.285c-3.844-5.67-7.587-12.132-9.48-18.743
			c3.168,0.878,14.561,12.548,21.727,19.703c1.281-1.13,2.475-2.364,3.544-3.729c5.157-6.582,6.948-15.669,4.676-23.716
			c-0.768-2.719-1.983-5.334-3.759-7.531c-3.898-4.822-9.889-6.978-15.766-8.233c-6.813-1.455-9.246-2.115-15.023-6.11
			c-10.365-7.168-23.368-10.557-35.906-9.104c-7.583,0.877-15.21,3.651-20.514,9.105c2.22,0.742,4.439,1.485,6.659,2.229
			c1.969,0.659,3.94,1.319,5.842,2.154c1.204,0.528,2.376,1.126,3.547,1.723c1.667,0.85,3.39,1.63,4.894,2.697
			c-2.191,2.188-11.279-1.275-14.507-1.69c-3.659-0.47-7.343-0.699-11.03-0.726c-0.556,1.035-1.08,2.088-1.545,3.166
			c-1.527,3.544-2.597,7.201-3.271,10.926c2.656-0.191,5.312-0.383,7.968-0.575c4.068-0.294,11.101-1.054,13.87,2.61
			c-1.844,1.561-5.202,1.514-7.67,1.865c-5.186,0.738-10.258,2.232-15.029,4.392c-0.161,4.973,0.281,10.007,1.206,15.002
			c1.919-0.577,3.854-1.105,5.804-1.569c2.575-0.612,5.213-1.14,7.549-2.384c3.298-1.756,6.239-4.98,9.961-4.65
			c-6.115,3.438-12.732,11.788-16.846,17.372c-0.408,0.554-1.632,2.13-3.067,4.066c1.548,4.538,3.413,8.968,5.494,13.206
			c1.98,4.03,4.219,8.063,7.626,10.988c3.267-7.038,9.773-11.903,17.036-14.933C1189.791,640.676,1190.702,636.824,1191.965,633.183
			z M1224.249,589.132c0.353-0.162,0.761-0.112,1.145-0.057c4.17,0.606,8.294,1.533,12.322,2.77l1.039-0.543
			c0.911-0.017,1.877-0.019,2.656,0.454s1.229,1.606,0.668,2.324c-0.379,0.485-1.05,0.609-1.659,0.699
			c-2.77,0.409-5.572,0.819-8.36,0.567c-2.789-0.252-5.607-1.234-7.558-3.243C1223.687,591.264,1223.186,589.619,1224.249,589.132z
			 M1172.173,637.342c-1.72,1.02-3.96,1.996-5.589,0.837c2.23-4.507,5.421-8.536,9.296-11.74l1.244-0.71
			c1.405,0.805,1.942,2.64,1.695,4.239C1178.295,633.353,1175.121,635.598,1172.173,637.342z M1185.087,594.903
			c-3.343,0.526-7.034,0.985-9.876-0.851c-0.837-0.54-1.595-1.69-0.951-2.449c4.396-0.318,8.839,0.012,13.141,0.975l1.599,0.342
			C1188.312,594.278,1186.591,594.667,1185.087,594.903z M1179.055,574.718c6.326-1.249,12.996-1.276,19.312,0.062
			c5.547,1.175,8.335,5.612,0.813,4.068C1192.472,577.471,1185.764,576.095,1179.055,574.718z"/>
		<path fill="#B9C1C6" d="M1273.021,717.999v5.109c0,26.49-21.46,47.96-47.95,47.96h-6.05c5.729-24.46,8.81-50.149,1.79-64.55
			c-7.8-16.01-10.33-36.2-10.87-52.78h29.01C1238.95,691.229,1273.021,681.979,1273.021,717.999z"/>
	</g>
	<g>
		<path fill="#E79E74" d="M988.023,768.597l-72.918-123.653c-5.896-8.856-2.955-20.859,6.366-25.987l0,0
			c9.223-5.075,20.814-1.274,25.242,8.275l27.607,45.069c4.675,7.527,8.517,15.54,11.461,23.896l6.178,21.84
			c3.44,13.932,3.884,29.955,10.668,42.602L988.023,768.597z"/>
		<path fill="#E79E74" d="M807.315,783.95l12.633-142.995c0.357-10.633,9.732-18.685,20.297-17.434l0,0
			c10.454,1.239,17.671,11.074,15.716,21.418l-3.767,52.718c-0.577,8.842-2.113,17.594-4.581,26.104l-7.682,21.356
			c-5.307,13.333-14.269,26.624-16.107,40.855L807.315,783.95z"/>
		<path fill="#F2F2F3" d="M833.939,510.536l-26.624,258.061c0,0,28.015,9.238,58.021,5.854c0,0,32.898-101.304,19.796-262.308
			L833.939,510.536z"/>
		<path fill="#D3D8DC" d="M887.447,550.042c-5.895-8.461-13.714-14.905-23.934-18.453c0,0-18.952,138.427,13.875,189.519
			C884.062,682.26,890.454,623.639,887.447,550.042z"/>
		<path fill="#F2F2F3" d="M860.568,515.007c0,0,32.719,204.589,96.774,253.59l45.285-16.988c0,0-0.521-71.605-53.48-120.403
			c0,0-2.694-37.473-38.344-119.814L860.568,515.007z"/>
		<path fill="#DAA228" d="M844.703,477.329l20.147-74.547c2.881-10.66-7.557-20.083-17.867-16.129l0,0
			c-6.899,2.645-12.12,8.428-14.048,15.561l-18.117,67.039c-2.23,8.252,2.651,16.75,10.903,18.981l0,0
			C833.975,490.463,842.473,485.582,844.703,477.329z"/>
		<path fill="#991D1F" d="M834.316,301.237c0,0,69.075-27.062,77.74,33.288c8.666,60.349,60.555,46.812,57.17,98.701
			c-3.384,51.889-153.104,58.657-154.948,9.024c-1.846-49.633,49.021-102.669,33.978-127.466
			C840.985,302.799,834.316,301.237,834.316,301.237z"/>
		<path fill="#E79E74" d="M886.427,359.749c0,0-4.204,20.654,3.409,26.999c0,0-19.035,8.46-32.148,0c0,0,2.962-16.336,0-26.569
			L886.427,359.749z"/>
		<path fill="#79993D" d="M841.103,474.733h68.104l5.624-70.186c0.668-11.495-8.474-21.184-19.987-21.184h-39.377
			c-11.606,0-20.781,9.837-19.974,21.415L841.103,474.733z"/>
		<path fill="#E79E74" d="M873.762,399.819c8.878,0,16.074-7.197,16.074-16.074c0-0.129-0.016-0.253-0.019-0.381h-32.11
			c-0.003,0.128-0.02,0.252-0.02,0.381C857.688,392.622,864.885,399.819,873.762,399.819z"/>
		<polygon fill="#79993D" points="834.316,522.109 913.737,522.109 908.59,474.733 840.485,474.733 		"/>
		<path fill="#834A2D" d="M988.023,768.597c0,0,0.041,11.933-28.955,36.834c0,0-0.978,8.327,10.491,0.124
			c11.468-8.203,42.433-30.352,42.433-30.352l-9.364-14.564L988.023,768.597z"/>
		<path fill="#834A2D" d="M807.315,783.95c0,0-6.909,9.729-44.979,13.113c0,0-5.641,6.204,8.46,6.204s52.171,0,52.171,0
			l0.857-17.294L807.315,783.95z"/>
		<path fill="#E79E74" d="M854.56,311.132c-9.323,3.745-15.26,12.441-16.36,22.234l-0.015-0.012c0,0-1.593,10.978-9.721,12.875
			c0,0,4.332,8.517,8.849,7.842c0,0,8.004,32.037,38.792,10.707c13.875-5.572,20.299-22.099,14.35-36.913
			C884.504,313.052,868.434,305.56,854.56,311.132z"/>
		<path fill="#EEB521" d="M887.312,383.363c0,0-26.315,127.823-3.755,166.176c0,0,31.308,18.189,58.263,3.871
			c0,0-28.863-36.322-28.083-156.65C913.737,396.76,916.937,379.979,887.312,383.363z"/>
		<path fill="#E6A024" d="M898.437,399.819c0,0,3.192,52.84-23.616,80.532c-0.239,5.164-0.377,10.285-0.395,15.299
			c2.529,12.44,13.412,27.248,52.357,22.12c-6.097-21.558-11.939-54.351-12.914-102.123
			C905.019,406.05,898.437,399.819,898.437,399.819z"/>
		<path fill="#EEB521" d="M855.467,383.363c0,0-0.081,134.102-24.519,172.071c0,0-7.41-147.872,8.858-166.291
			C839.807,389.144,846.134,381.81,855.467,383.363z"/>
		<path fill="#991D1F" d="M845.739,317.071c0,0,13.694,64.861,41.573,66.292c0,0,17.914-44.266,0-66.292
			c-17.915-22.027-50.346-21.463-55.845-13.426s-5.741,19.226,8.339,22.938C839.807,326.583,842.481,319.921,845.739,317.071z"/>
		<g>
			<g>
				<polygon fill="#35357C" points="763.263,417.294 771.029,411.711 782.818,413.138 775.052,418.721 				"/>
			</g>
			<g>
				<polygon fill="#35357C" points="773.587,409.737 781.354,404.154 813.916,399.675 806.149,405.259 				"/>
			</g>
			<g>
				<polygon fill="#3D408D" points="841.518,417.957 849.284,412.374 850.75,421.357 842.983,426.941 				"/>
			</g>
			<g>
				<polygon fill="#3B3D89" points="806.149,405.259 813.916,399.675 849.284,412.374 841.518,417.957 				"/>
			</g>
			<path fill="#3D408D" d="M869.206,475.437c0.005-0.143,0.014-0.284,0.019-0.426c0.002-0.046,0.004-0.091,0.006-0.137
				c0.024-0.727,0.037-1.458,0.043-2.191c0.002-0.2,0.001-0.4,0.001-0.6c0.001-0.322,0.004-0.643,0.002-0.967
				c-0.003-0.303-0.012-0.609-0.018-0.914c-0.004-0.204-0.007-0.408-0.012-0.613c-0.019-0.75-0.044-1.501-0.081-2.257
				c-0.002-0.042-0.005-0.085-0.008-0.127c-0.006-0.127-0.016-0.254-0.022-0.381c-0.037-0.689-0.083-1.381-0.136-2.075
				c-0.018-0.228-0.035-0.455-0.054-0.682c-0.017-0.196-0.029-0.39-0.047-0.585c-0.048-0.537-0.103-1.076-0.16-1.616
				c-0.009-0.091-0.017-0.182-0.026-0.274c-0.074-0.68-0.154-1.361-0.242-2.045c-0.013-0.097-0.029-0.195-0.043-0.292
				c-0.139-1.059-0.291-2.122-0.466-3.191l-5.428-33.277l-7.767,5.583l5.428,33.277c0.175,1.069,0.327,2.131,0.466,3.19
				c0.104,0.782,0.201,1.563,0.285,2.339c0.01,0.091,0.017,0.181,0.026,0.272c0.078,0.738,0.146,1.473,0.207,2.205
				c0.019,0.227,0.036,0.453,0.054,0.68c0.053,0.693,0.099,1.383,0.136,2.071c0.007,0.129,0.017,0.259,0.023,0.388
				c0.04,0.799,0.068,1.593,0.088,2.385c0.005,0.204,0.008,0.406,0.012,0.609c0.012,0.63,0.017,1.258,0.016,1.883
				c0,0.2,0,0.4-0.001,0.6c-0.007,0.781-0.022,1.559-0.049,2.331c-0.005,0.14-0.014,0.279-0.019,0.419
				c-0.025,0.647-0.059,1.292-0.099,1.933c-0.014,0.225-0.028,0.45-0.044,0.675c-0.044,0.631-0.096,1.259-0.152,1.883
				c-0.015,0.149-0.025,0.299-0.04,0.447c-0.074,0.755-0.158,1.505-0.253,2.25c-0.025,0.204-0.055,0.407-0.082,0.611
				c-0.075,0.561-0.154,1.12-0.241,1.675c-0.037,0.24-0.074,0.479-0.114,0.718c-0.09,0.55-0.188,1.096-0.289,1.64
				c-0.039,0.208-0.075,0.419-0.116,0.627c-0.144,0.734-0.296,1.465-0.46,2.188c-0.033,0.15-0.072,0.299-0.107,0.449
				c-0.137,0.588-0.278,1.173-0.429,1.753c-0.065,0.254-0.136,0.505-0.204,0.757c-0.127,0.467-0.256,0.931-0.391,1.391
				c-0.092,0.315-0.188,0.629-0.284,0.941c-0.129,0.42-0.261,0.837-0.397,1.252c-0.103,0.312-0.207,0.623-0.313,0.932
				c-0.133,0.387-0.271,0.771-0.41,1.152c-0.137,0.375-0.275,0.748-0.418,1.118c-0.14,0.362-0.282,0.723-0.429,1.081
				c-0.148,0.366-0.299,0.729-0.453,1.092c-0.139,0.324-0.281,0.647-0.424,0.969c-0.22,0.49-0.444,0.976-0.675,1.458
				c-0.138,0.288-0.274,0.576-0.415,0.861c-0.253,0.51-0.516,1.013-0.781,1.514c-0.124,0.233-0.244,0.47-0.371,0.701
				c-0.471,0.859-0.961,1.702-1.47,2.531c-0.119,0.195-0.243,0.387-0.365,0.58c-0.432,0.687-0.876,1.361-1.333,2.025
				c-0.135,0.194-0.265,0.392-0.4,0.584c-0.235,0.332-0.477,0.656-0.718,0.982c-0.21,0.283-0.417,0.568-0.631,0.847
				c-0.248,0.323-0.505,0.638-0.76,0.954c-0.218,0.271-0.434,0.546-0.656,0.812c-0.264,0.315-0.535,0.622-0.806,0.931
				c-0.225,0.258-0.446,0.518-0.676,0.771c-0.28,0.31-0.57,0.609-0.857,0.912c-0.23,0.241-0.456,0.487-0.689,0.724
				c-0.301,0.306-0.611,0.6-0.919,0.897c-0.231,0.224-0.458,0.452-0.693,0.671c-0.33,0.308-0.669,0.604-1.006,0.901
				c-0.225,0.199-0.443,0.403-0.671,0.598c-0.378,0.324-0.768,0.636-1.154,0.949c-0.197,0.159-0.388,0.324-0.587,0.479
				c-0.59,0.465-1.19,0.917-1.802,1.356l7.767-5.583c0.611-0.44,1.212-0.893,1.803-1.356c0.194-0.153,0.382-0.314,0.573-0.47
				c0.393-0.316,0.785-0.632,1.168-0.96c0.225-0.192,0.441-0.395,0.663-0.591c0.34-0.301,0.682-0.599,1.013-0.908
				c0.233-0.218,0.459-0.444,0.689-0.666c0.309-0.299,0.621-0.596,0.923-0.901c0.233-0.236,0.458-0.481,0.688-0.723
				c0.288-0.303,0.578-0.604,0.859-0.913c0.229-0.253,0.45-0.513,0.675-0.77c0.271-0.309,0.543-0.616,0.807-0.933
				c0.223-0.266,0.437-0.538,0.654-0.809c0.256-0.317,0.513-0.634,0.762-0.958c0.214-0.277,0.42-0.562,0.629-0.845
				c0.242-0.326,0.484-0.651,0.72-0.983c0.052-0.074,0.107-0.146,0.159-0.22c0.084-0.118,0.158-0.245,0.241-0.364
				c0.457-0.664,0.901-1.339,1.333-2.025c0.122-0.193,0.246-0.386,0.366-0.581c0.507-0.828,0.998-1.671,1.469-2.53
				c0.026-0.048,0.056-0.093,0.081-0.141c0.101-0.185,0.192-0.377,0.291-0.562c0.266-0.5,0.527-1.003,0.78-1.512
				c0.142-0.285,0.277-0.573,0.415-0.861c0.23-0.482,0.455-0.969,0.675-1.459c0.07-0.159,0.148-0.312,0.218-0.473
				c0.071-0.163,0.136-0.331,0.206-0.495c0.154-0.362,0.306-0.727,0.454-1.093c0.146-0.358,0.288-0.718,0.428-1.08
				c0.143-0.371,0.281-0.743,0.418-1.118c0.074-0.201,0.153-0.398,0.226-0.602c0.064-0.183,0.122-0.369,0.186-0.552
				c0.106-0.309,0.21-0.618,0.312-0.93c0.137-0.415,0.269-0.833,0.397-1.253c0.097-0.313,0.192-0.626,0.285-0.941
				c0.044-0.153,0.094-0.303,0.137-0.456c0.089-0.31,0.169-0.624,0.253-0.937c0.068-0.251,0.139-0.501,0.204-0.754
				c0.15-0.583,0.293-1.171,0.431-1.762c0.034-0.147,0.072-0.293,0.105-0.441c0.006-0.024,0.012-0.047,0.018-0.071
				c0.157-0.701,0.304-1.408,0.442-2.12c0.041-0.207,0.077-0.415,0.115-0.623c0.069-0.368,0.141-0.733,0.204-1.104
				c0.031-0.179,0.057-0.36,0.086-0.539c0.04-0.239,0.077-0.478,0.114-0.718c0.087-0.555,0.167-1.114,0.241-1.675
				c0.027-0.204,0.057-0.406,0.082-0.611c0.011-0.081,0.023-0.161,0.033-0.243c0.082-0.666,0.154-1.336,0.22-2.009
				c0.015-0.146,0.025-0.293,0.039-0.44c0.04-0.435,0.081-0.869,0.115-1.307c0.015-0.194,0.024-0.39,0.038-0.584
				c0.016-0.224,0.03-0.448,0.044-0.672C869.147,476.725,869.18,476.083,869.206,475.437z"/>
			<g>
				<polygon fill="#35357C" points="842.983,426.941 850.75,421.357 862.534,422.783 854.768,428.367 				"/>
			</g>
			<g>
				<path fill="#2C2B6C" d="M806.149,405.259l35.368,12.698l1.466,8.984l11.784,1.426l5.428,33.277
					c5.623,34.469-7.038,63.733-32.571,75.269c-30.396-18.304-53.311-51.873-58.934-86.341l-5.428-33.277l11.789,1.427l-1.465-8.984
					L806.149,405.259z"/>
			</g>
			<g>
				<path fill="#3D408D" d="M806.941,413.624l30.875,11.085l1.279,7.842l10.287,1.245l4.738,29.049
					c4.907,30.089-6.145,55.635-28.434,65.705c-26.533-15.979-46.536-45.281-51.444-75.37l-4.738-29.049l10.291,1.245l-1.278-7.842
					L806.941,413.624z"/>
			</g>
		</g>
		<path fill="#E79E74" d="M769.037,485c0.253-6.751,6.324-11.794,13.003-10.771c6.164,0.944,13.094,3.218,17.043,8.461
			c0,0,5.327,3.504-9.102,1.283c0,0-2.961,10.408,19.869,13.472c0,0-12.991,23.646-37.905-4.435
			C769.99,490.807,768.928,487.945,769.037,485L769.037,485z"/>
		<path fill="#E79E74" d="M881.998,473.745c0,0-18.989-9.974-30.804-2.937c0,0-6.256,1.229,7.94,4.631
			c0,0-1.197,10.753-23.489,4.954c0,0,3.332,29.009,40.99,8.016l7.479,1.784l2.521-15.109L881.998,473.745z"/>
		<path fill="#EEB521" d="M898.726,383.745l9.927,0.114c8.801,0.101,16.922,4.746,21.472,12.279L961.443,448
			c8.832,14.625,1.817,33.668-14.393,39.068l-62.707,20.89c0,0-11.742-9.833-4.652-35.812c0,0,47.587-9.933,47.059-18.575
			C926.75,453.57,892.804,421.967,898.726,383.745z"/>
		<path fill="#991D1F" d="M839.148,358.96c0.691,1.474,1.606,3.129,2.773,4.762c5.982-0.742,8.581-6.355,8.581-6.355
			C846.135,360.185,839.156,358.961,839.148,358.96z"/>
	</g>
	<line fill="none" stroke="#000000" stroke-miterlimit="10" x1="724.051" y1="659.612" x2="724.051" y2="683.495"/>
	<line fill="none" stroke="#000000" stroke-miterlimit="10" x1="724.051" y1="705.72" x2="724.051" y2="729.603"/>
	<line fill="none" stroke="#000000" stroke-miterlimit="10" x1="724.051" y1="750.136" x2="724.051" y2="772.326"/>
	<g>
		<rect x="278.09" y="556.333" fill="#834A2D" width="371.923" height="12.338"/>
		<rect x="289.449" y="731.004" fill="#834A2D" width="62.605" height="12.338"/>
		<rect x="289.449" y="568.671" fill="#1C224F" width="62.605" height="41.053"/>
		<rect x="575.287" y="731.004" fill="#834A2D" width="62.605" height="12.338"/>
		<rect x="289.449" y="568.671" fill="#834A2D" width="11.844" height="224.73"/>
		<rect x="340.209" y="568.671" fill="#834A2D" width="11.844" height="224.73"/>
		<rect x="574.555" y="568.671" fill="#834A2D" width="11.844" height="224.73"/>
		<rect x="625.316" y="568.671" fill="#834A2D" width="11.844" height="224.73"/>
		<rect x="352.054" y="568.671" fill="#5C3A55" width="285.106" height="41.053"/>
		<rect x="365.088" y="579.071" fill="#834A2D" width="257.628" height="20.145"/>
		<path fill="#5C3A55" d="M516.29,592.83h-36.879c-1.186,0-2.147-0.961-2.147-2.146v-2.972c0-1.186,0.961-2.147,2.147-2.147h36.879
			c1.186,0,2.147,0.962,2.147,2.147v2.972C518.437,591.869,517.475,592.83,516.29,592.83z"/>
	</g>
	<g>
		<path fill="#1C224F" d="M561.758,533.739H360.902c-3.174,0-5.747-2.573-5.747-5.747V408.761c0-3.174,2.573-5.747,5.747-5.747
			h200.856c3.174,0,5.747,2.573,5.747,5.747v119.231C567.505,531.166,564.932,533.739,561.758,533.739z"/>
		<rect x="363.655" y="411.246" fill="#D3D8DC" width="195.35" height="103.261"/>
		<polygon fill="#1C224F" points="493.056,556.707 429.605,556.707 443.987,533.739 478.674,533.739 		"/>
		<g>
			<polyline fill="none" stroke="#FFFFFF" stroke-miterlimit="10" points="434.894,459.414 423.563,459.414 412.917,448.768 
				412.917,432.812 			"/>
			<polyline fill="none" stroke="#FFFFFF" stroke-miterlimit="10" points="434.894,463.848 420.903,463.848 406.414,449.359 
				406.414,428.379 			"/>
			<polyline fill="none" stroke="#FFFFFF" stroke-miterlimit="10" points="434.894,470.399 420.654,470.399 409.353,459.098 			"/>
			<polyline fill="none" stroke="#FFFFFF" stroke-miterlimit="10" points="435.241,474.501 415.878,474.501 397.718,492.662 			"/>
			<polyline fill="none" stroke="#FFFFFF" stroke-miterlimit="10" points="435.241,478.999 420.654,478.999 413.695,485.958 			"/>
			<polyline fill="none" stroke="#FFFFFF" stroke-miterlimit="10" points="437.849,482.478 424.468,482.478 412.288,494.658 			"/>
			<circle fill="none" stroke="#FFFFFF" stroke-miterlimit="10" cx="412.917" cy="430.152" r="3.14"/>
			<circle fill="none" stroke="#FFFFFF" stroke-miterlimit="10" cx="412.288" cy="487.937" r="3.14"/>
			<circle fill="none" stroke="#FFFFFF" stroke-miterlimit="10" cx="406.414" cy="426.458" r="2.221"/>
			<circle fill="none" stroke="#FFFFFF" stroke-miterlimit="10" cx="396.519" cy="493.996" r="2.221"/>
			<circle fill="none" stroke="#FFFFFF" stroke-miterlimit="10" cx="408.635" cy="457.493" r="2.221"/>
			<circle fill="none" stroke="#FFFFFF" stroke-miterlimit="10" cx="410.855" cy="496.217" r="2.221"/>
			<polyline fill="none" stroke="#FFFFFF" stroke-miterlimit="10" points="482.973,476.901 494.303,476.901 504.95,487.547 
				504.95,498.773 			"/>
			<polyline fill="none" stroke="#FFFFFF" stroke-miterlimit="10" points="484.155,472.468 496.963,472.468 511.452,486.957 
				511.452,499.66 			"/>
			<polyline fill="none" stroke="#FFFFFF" stroke-miterlimit="10" points="484.155,465.916 497.213,465.916 508.514,477.217 			"/>
			<polyline fill="none" stroke="#FFFFFF" stroke-miterlimit="10" points="483.808,461.813 501.988,461.813 520.149,443.653 			"/>
			<polyline fill="none" stroke="#FFFFFF" stroke-miterlimit="10" points="483.808,457.317 497.213,457.317 504.172,450.357 			"/>
			<polyline fill="none" stroke="#FFFFFF" stroke-miterlimit="10" points="480.018,453.837 493.398,453.837 505.579,441.657 			"/>
			<circle fill="none" stroke="#FFFFFF" stroke-miterlimit="10" cx="504.95" cy="501.434" r="3.14"/>
			<circle fill="none" stroke="#FFFFFF" stroke-miterlimit="10" cx="505.579" cy="448.378" r="3.14"/>
			<circle fill="none" stroke="#FFFFFF" stroke-miterlimit="10" cx="511.452" cy="501.581" r="2.22"/>
			<circle fill="none" stroke="#FFFFFF" stroke-miterlimit="10" cx="521.348" cy="442.319" r="2.221"/>
			<circle fill="none" stroke="#FFFFFF" stroke-miterlimit="10" cx="509.232" cy="478.822" r="2.22"/>
			<circle fill="none" stroke="#FFFFFF" stroke-miterlimit="10" cx="507.011" cy="440.099" r="2.221"/>
		</g>
		<g>
			<path fill="#3D408D" d="M471.58,507.957h-24.023c-11.437,0-20.708-9.271-20.708-20.708v-33.767h65.439v33.767
				C492.288,498.686,483.017,507.957,471.58,507.957z"/>
			<g>
				<path fill="#4E2C45" d="M487.153,453.481h-4.74v-3.854c0-12.923-10.514-23.438-23.437-23.438s-23.438,10.514-23.438,23.438
					v3.854h-4.74v-3.854c0-15.537,12.64-28.178,28.178-28.178c15.537,0,28.177,12.641,28.177,28.178V453.481z"/>
			</g>
			<path fill="#4E2C45" d="M465.888,468.793c0-3.49-2.83-6.32-6.32-6.32c-3.491,0-6.32,2.83-6.32,6.32
				c0,2.523,1.482,4.694,3.619,5.708v9.437c0,1.542,1.25,2.792,2.792,2.792c1.542,0,2.792-1.25,2.792-2.792v-9.524
				C464.49,473.364,465.888,471.244,465.888,468.793z"/>
		</g>
	</g>
	<g>
		<path fill="#D58F6B" d="M723.363,481.198l-14.752-4.072l-26.75,65.845c-2.812,7.651,1.326,16.103,9.094,18.572l0,0
			c7.938,2.522,16.344-2.24,18.258-10.346L723.363,481.198z"/>
		<path fill="#D58F6B" d="M710.255,474.037c0,0,6.73-19.056,20.08-22.354c0,0,5.313-3.523-2.393,8.875c0,0,8.41,6.808,20.189-12.987
			c0,0,18.02,22.977-23.522,34.513l-4.066,6.527l-11.932-11.484L710.255,474.037z"/>
		<path fill="#DD9572" d="M679.553,548.424l-14.016-75.939c-2.004-10.859,9.165-19.401,19.12-14.622l0,0
			c6.662,3.198,11.394,9.385,12.735,16.652l12.604,68.29c1.552,8.406-4.005,16.479-12.412,18.031l0,0
			C689.177,562.388,681.104,556.83,679.553,548.424z"/>
		<path fill="#F2F2F3" d="M689.423,459.007c0,0,19.35,9.862,16.529,55.279l-14.777,11.911L689.423,459.007z"/>
		<path fill="#D3D8DC" d="M691.384,469.567c0,0,12.007,22.617,10.134,48.293l-7.354,5.928L691.384,469.567z"/>
		<g>
			<path fill="#4E2C45" d="M477.051,485.691l20.234,39.206c2.178,4.222,6.3,6.428,9.207,4.928c2.906-1.5,3.497-6.139,1.318-10.359
				l-20.234-39.206L477.051,485.691z"/>
			<circle fill="#CD2027" cx="471.235" cy="462.463" r="29.289"/>
			<circle fill="#8F1920" cx="471.624" cy="462.262" r="23.981"/>
			<circle fill="#3D408D" cx="471.624" cy="462.262" r="21.855"/>
			<path fill="#FFFFFF" d="M478.003,457.477c0-3.738-3.03-6.768-6.768-6.768c-3.738,0-6.768,3.03-6.768,6.768
				c0,2.702,1.587,5.027,3.876,6.112v10.105c0,1.651,1.338,2.99,2.989,2.99c1.651,0,2.99-1.338,2.99-2.99v-10.199
				C476.506,462.372,478.003,460.101,478.003,457.477z"/>
		</g>
		<path fill="#2C2B6C" d="M559.08,628.521L559.08,628.521c-5.189-10.535-1.194-22.662,8.542-25.927l119.682-16.492l0.894,5.801
			c3.31,21.49-12.503,41.201-34.199,42.631l-72.772,4.793C572.982,642.076,563.47,637.435,559.08,628.521z"/>
		<path fill="#607834" d="M575.64,765.234l-21.139-141.988c-2.138-10.421,5.096-20.441,15.66-21.693l0,0
			c10.454-1.239,19.77,6.637,20.287,17.15l8.659,52.139c1.505,8.731,2.058,17.601,1.647,26.451l-2.477,22.562
			c-2.043,14.204-7.651,29.221-6.113,43.488L575.64,765.234z"/>
		<path fill="#E79E74" d="M660.983,432.862c0,0-4.204,20.654,3.41,26.999c0,0-19.036,8.46-32.148,0c0,0,2.961-16.336,0-26.569
			L660.983,432.862z"/>
		<path fill="#3D408D" d="M503.856,630.131L503.856,630.131c-5.189-10.535-1.194-22.661,8.542-25.927l143.413-47.497l4.897,47.061
			c1.761,16.919-11.1,31.822-28.094,32.558l-106.612,4.611C517.759,643.686,508.247,639.044,503.856,630.131z"/>
		<path fill="#3D408D" d="M520.417,766.844l-21.139-141.987c-2.137-10.422,5.096-20.442,15.661-21.694l0,0
			c10.454-1.239,19.77,6.637,20.287,17.151l8.659,52.138c1.505,8.731,2.058,17.601,1.647,26.451l-2.477,22.562
			c-2.043,14.204-4.442,29.221-2.904,43.488L520.417,766.844z"/>
		<path fill="#824C2D" d="M520.417,766.844c0,0-4.444,11.074-40.669,23.263c0,0-4.034,7.351,9.676,4.055
			c13.709-3.295,50.726-12.193,50.726-12.193l-3.208-17.016L520.417,766.844z"/>
		<path fill="#824C2D" d="M575.64,765.234c0,0-4.444,11.074-40.669,23.263c0,0-4.034,7.351,9.676,4.055
			c13.709-3.296,50.726-12.193,50.726-12.193l-3.208-17.016L575.64,765.234z"/>
		<path fill="#E79E74" d="M594.514,541.826l43.929-63.509c6.281-9.082-0.402-21.453-11.44-21.178h0
			c-7.386,0.184-14.24,3.887-18.444,9.963l-39.504,57.112c-4.863,7.031-3.106,16.673,3.924,21.535l0,0
			C580.009,550.613,589.651,548.856,594.514,541.826z"/>
		<path fill="#E79E74" d="M511.277,515.822l2.414-15.606l71.027,24.278c7.619,2.897,11.281,11.565,8.047,19.048l0,0
			c-3.304,7.646-12.414,10.864-19.787,6.99L511.277,515.822z"/>
		<path fill="#E79E74" d="M510.122,517.209c0,0-24.97,6.592-24.596-10.976c0,0-0.004-20.493,21.66-9.593l7.063,4.506l0.641,15.305
			L510.122,517.209z"/>
		<path fill="#E79E74" d="M630.905,383.562c-9.442,3.434-15.663,11.928-17.087,21.679l-0.014-0.012c0,0-1.956,10.919-10.142,12.545
			c0,0,4.048,8.656,8.583,8.132c0,0,6.939,32.285,38.417,11.986c14.051-5.11,21.02-21.415,15.564-36.417
			C660.77,386.472,644.956,378.452,630.905,383.562z"/>
		<path fill="#991D1F" d="M635.873,408.152c0,0-2.333,22.058,3.379,17.583c16.077-12.596,9.068,24.623,20.864,13.338
			c0,0,22.132-17.713,7.968-46.901c0,0,4.734-24.672-35.765-27.172c-5.135-0.317-9.658,0.237-13.581,0.762
			c-13.384,1.793-17.802,18.97-6.942,26.994C621.616,400.012,629.139,405.653,635.873,408.152z"/>
		<path fill="#991D1F" d="M625.367,426.858c-4.442,4.019-11.635,3.556-11.635,3.556c1.188,2.876,3.196,6.584,6.354,9.494
			C626.596,437.782,625.367,426.858,625.367,426.858z"/>
		<path fill="#8BD3E1" d="M630.023,456.477c0,0,5.425-8.003,22.063-8.235c16.638-0.233,22.417,8.893,22.417,8.893L630.023,456.477z"
			/>
		<path fill="#F2F2F3" d="M624.32,455.107c0,0,40.116-7.663,65.103,3.899c0,0,14.271,64.297,1.299,122.39
			c0,0,2.75,20.027,2.538,28.201c0,0-66.867,32.127-103.854-31.22c0,0,30.199-29.858,22.188-81.241
			C611.594,497.137,612.601,459.007,624.32,455.107z"/>
		<path fill="#D3D8DC" d="M598.868,565.676c27.813-0.254,32.887-44.83,33.448-71.274c0.181-8.545-9.191-13.879-16.48-9.417
			c-1.175,0.719-2.365,1.452-3.551,2.187c-0.577,5.755-0.69,9.965-0.69,9.965c4.94,31.686-4.647,55.17-12.726,68.531
			C598.868,565.669,598.868,565.676,598.868,565.676z"/>
		<path fill="#E79E74" d="M640.208,414.885c0,0,9.361-11.075,14.4-2.725c5.141,8.517-8.22,21.077-12.804,19.674
			C637.22,430.431,640.208,414.885,640.208,414.885z"/>
		<path fill="#F2F2F3" d="M580.562,505.276c0,0,10.608,17.818,26.75,20.921c0,0,33.079-27.506,22.711-69.72
			C630.023,456.477,606.371,446.287,580.562,505.276z"/>
	</g>
	<g>
		<path fill="#1C224F" d="M824.979,807.609H541.826c-3.63,0-6.572-2.942-6.572-6.572V634.285c0-3.63,2.942-6.572,6.572-6.572
			h283.153V807.609z"/>
		<path fill="#991D1F" d="M837.02,807.609H553.866V627.713H837.02c3.63,0,6.572,2.942,6.572,6.572v166.752
			C843.592,804.667,840.649,807.609,837.02,807.609z"/>
	</g>
	<g>
		<g>
			<path fill="#A2AAB2" d="M381.219,184.286h-10.44v-8.488c0-28.464-23.157-51.623-51.622-51.623s-51.623,23.158-51.623,51.623V221
				h-10.44v-45.203c0-34.222,27.841-62.063,62.063-62.063c34.221,0,62.062,27.841,62.062,62.063V184.286z"/>
		</g>
		<path fill="#A2AAB2" d="M410.116,342.92h-134.73c-11.437,0-20.708-9.271-20.708-20.708V196.286h176.147v125.926
			C430.825,333.648,421.553,342.92,410.116,342.92z"/>
		<path fill="#CED5DB" d="M388.116,342.92h-134.73c-11.437,0-20.708-9.271-20.708-20.708V196.286h176.147v125.926
			C408.825,333.648,399.553,342.92,388.116,342.92z"/>
		<path fill="#F2F2F3" d="M337.763,245.501c0-9.396-7.617-17.012-17.013-17.012c-9.395,0-17.011,7.616-17.011,17.012
			c0,6.791,3.989,12.635,9.743,15.363v25.4c0,4.15,3.364,7.515,7.514,7.515c4.15,0,7.516-3.365,7.516-7.515v-25.637
			C334,257.806,337.763,252.099,337.763,245.501z"/>
	</g>
	<rect x="985.52" y="228.49" fill="#86D3E5" width="69.218" height="80.8"/>
	<rect x="1009.187" y="338.966" fill="#86D3E5" width="50.884" height="59.399"/>
	<rect x="1053.237" y="338.966" fill="#F2F2F3" width="6.833" height="59.399"/>
	<path fill="#41B9D6" d="M1030.067,256.572c0,9.93-8.061,17.99-18,17.99c-9.94,0-18-8.06-18-17.99c0-9.94,8.06-18,18-18
		c6.81,0,12.739,3.78,15.8,9.36C1029.268,250.492,1030.067,253.441,1030.067,256.572z"/>
	<path fill="#EEB521" d="M1027.867,247.932l-15.8,8.64v-18C1018.877,238.572,1024.807,242.352,1027.867,247.932z"/>
	<rect x="996.737" y="279.072" fill="#D3D8DC" width="33.33" height="5"/>
	<rect x="996.737" y="287.129" fill="#F2F2F3" width="48.5" height="5"/>
	<rect x="996.737" y="295.269" fill="#F2F2F3" width="48.5" height="5"/>
	<rect x="1016.967" y="350.572" fill="#79993D" width="21.533" height="21.532"/>
	<rect x="1030.062" y="363.722" fill="#D3D8DC" width="15.175" height="26.785"/>
	<g>
		<path fill="#B02F37" d="M596.653,655.556H576.77c-3.49,0-6.345-2.855-6.345-6.345l0,0c0-3.489,2.855-6.345,6.345-6.345h19.883
			c3.49,0,6.345,2.855,6.345,6.345l0,0C602.998,652.7,600.143,655.556,596.653,655.556z"/>
		<path fill="#8F1A1D" d="M631.45,655.556h-19.883c-3.49,0-6.345-2.855-6.345-6.345l0,0c0-3.489,2.855-6.345,6.345-6.345h19.883
			c3.49,0,6.345,2.855,6.345,6.345l0,0C637.795,652.7,634.94,655.556,631.45,655.556z"/>
		<path fill="#7F141B" d="M615.898,669.844h-19.883c-3.49,0-6.345-2.855-6.345-6.345l0,0c0-3.489,2.855-6.345,6.345-6.345h19.883
			c3.49,0,6.345,2.855,6.345,6.345l0,0C622.243,666.988,619.388,669.844,615.898,669.844z"/>
		<path fill="#B02F37" d="M650.695,669.844h-19.883c-3.489,0-6.345-2.855-6.345-6.345l0,0c0-3.489,2.855-6.345,6.345-6.345h19.883
			c3.49,0,6.345,2.855,6.345,6.345l0,0C657.04,666.988,654.185,669.844,650.695,669.844z"/>
	</g>
	<g>
		<path fill="#B02F37" d="M756.544,700.592H736.66c-3.489,0-6.345-2.854-6.345-6.345l0,0c0-3.489,2.855-6.345,6.345-6.345h19.884
			c3.489,0,6.345,2.855,6.345,6.345l0,0C762.889,697.737,760.033,700.592,756.544,700.592z"/>
		<path fill="#7F141B" d="M775.789,714.88h-19.883c-3.49,0-6.346-2.854-6.346-6.345l0,0c0-3.489,2.855-6.345,6.346-6.345h19.883
			c3.489,0,6.345,2.855,6.345,6.345l0,0C782.134,712.025,779.278,714.88,775.789,714.88z"/>
		<path fill="#B02F37" d="M810.586,714.88h-19.883c-3.49,0-6.345-2.854-6.345-6.345l0,0c0-3.489,2.854-6.345,6.345-6.345h19.883
			c3.489,0,6.345,2.855,6.345,6.345l0,0C816.931,712.025,814.075,714.88,810.586,714.88z"/>
	</g>
	<g>
		<path fill="#B02F37" d="M600.688,774.396h-19.883c-3.49,0-6.345-2.854-6.345-6.345l0,0c0-3.489,2.855-6.345,6.345-6.345h19.883
			c3.489,0,6.345,2.855,6.345,6.345l0,0C607.033,771.542,604.178,774.396,600.688,774.396z"/>
		<path fill="#8F1A1D" d="M635.485,774.396h-19.883c-3.49,0-6.345-2.854-6.345-6.345l0,0c0-3.489,2.855-6.345,6.345-6.345h19.883
			c3.489,0,6.345,2.855,6.345,6.345l0,0C641.83,771.542,638.975,774.396,635.485,774.396z"/>
		<path fill="#7F141B" d="M619.934,788.686H600.05c-3.49,0-6.345-2.855-6.345-6.346l0,0c0-3.489,2.855-6.344,6.345-6.344h19.883
			c3.489,0,6.345,2.854,6.345,6.344l0,0C626.278,785.83,623.423,788.686,619.934,788.686z"/>
	</g>
	<g>
		<path fill="#B02F37" d="M786.683,654.756h-19.884c-3.489,0-6.344-2.854-6.344-6.345l0,0c0-3.489,2.854-6.345,6.344-6.345h19.884
			c3.489,0,6.345,2.855,6.345,6.345l0,0C793.027,651.901,790.172,654.756,786.683,654.756z"/>
		<path fill="#8F1A1D" d="M821.479,654.756h-19.883c-3.49,0-6.345-2.854-6.345-6.345l0,0c0-3.489,2.854-6.345,6.345-6.345h19.883
			c3.489,0,6.345,2.855,6.345,6.345l0,0C827.824,651.901,824.969,654.756,821.479,654.756z"/>
		<path fill="#7F141B" d="M805.928,669.045h-19.884c-3.489,0-6.345-2.855-6.345-6.346l0,0c0-3.489,2.855-6.344,6.345-6.344h19.884
			c3.489,0,6.345,2.854,6.345,6.344l0,0C812.272,666.189,809.417,669.045,805.928,669.045z"/>
	</g>
	<g>
		<path fill="#B02F37" d="M775.051,773.343h-19.883c-3.489,0-6.345-2.855-6.345-6.345l0,0c0-3.489,2.855-6.345,6.345-6.345h19.883
			c3.49,0,6.345,2.855,6.345,6.345l0,0C781.396,770.487,778.541,773.343,775.051,773.343z"/>
		<path fill="#8F1A1D" d="M809.848,773.343h-19.883c-3.489,0-6.345-2.855-6.345-6.345l0,0c0-3.489,2.855-6.345,6.345-6.345h19.883
			c3.49,0,6.345,2.855,6.345,6.345l0,0C816.192,770.487,813.338,773.343,809.848,773.343z"/>
		<path fill="#7F141B" d="M794.296,787.631h-19.883c-3.489,0-6.345-2.855-6.345-6.345l0,0c0-3.489,2.855-6.345,6.345-6.345h19.883
			c3.49,0,6.345,2.855,6.345,6.345l0,0C800.641,784.775,797.786,787.631,794.296,787.631z"/>
	</g>
	<g>
		<path fill="#8F1A1D" d="M668.965,730.204h-19.883c-3.489,0-6.345-2.854-6.345-6.345l0,0c0-3.489,2.855-6.345,6.345-6.345h19.883
			c3.49,0,6.345,2.855,6.345,6.345l0,0C675.31,727.35,672.455,730.204,668.965,730.204z"/>
		<path fill="#7F141B" d="M653.414,744.492H633.53c-3.489,0-6.345-2.854-6.345-6.345l0,0c0-3.489,2.855-6.345,6.345-6.345h19.883
			c3.49,0,6.345,2.855,6.345,6.345l0,0C659.758,741.638,656.903,744.492,653.414,744.492z"/>
		<path fill="#B02F37" d="M688.21,744.492h-19.883c-3.489,0-6.345-2.854-6.345-6.345l0,0c0-3.489,2.855-6.345,6.345-6.345h19.883
			c3.49,0,6.345,2.855,6.345,6.345l0,0C694.555,741.638,691.7,744.492,688.21,744.492z"/>
	</g>
</g>
</svg>
