<?xml version="1.0" encoding="utf-8"?>
<!-- Generator: Adobe Illustrator 16.0.0, SVG Export Plug-In . SVG Version: 6.00 Build 0)  -->
<!DOCTYPE svg PUBLIC "-//W3C//DTD SVG 1.1//EN" "http://www.w3.org/Graphics/SVG/1.1/DTD/svg11.dtd">
<svg version="1.1" xmlns="http://www.w3.org/2000/svg" xmlns:xlink="http://www.w3.org/1999/xlink" x="0px" y="0px" width="1400px"
	 height="980px" viewBox="0 0 1400 980" enable-background="new 0 0 1400 980" xml:space="preserve">
<g id="BACKGROUND">
	<g>
		<rect x="-13.819" y="-14.318" fill="#F6F6F8" width="1428" height="1010"/>
	</g>
</g>
<g id="OBJECTS">
	<rect x="176.828" y="754.301" fill="#BCC6CE" width="1016.824" height="114.699"/>
	<path fill="#7B9A3D" d="M1193.501,754.219H178.944c0,0-55.218-544.344,214.934-559.536
		c278.734-15.674,237.32,220.889,561.884,129.13C1137.411,272.458,1211.986,507.615,1193.501,754.219z"/>
	<path fill="#6F8732" d="M225.922,327.533c114.299-39.146,388.016-106.755,507.2,90.822
		c150.32,249.195,296.731,36.635,455.709,150.912c7.993,57.67,9.47,120.923,4.67,184.951H178.944
		C178.944,754.219,152.46,493.117,225.922,327.533z"/>
	<path fill="#65772C" d="M512.331,550.415c183.623-104.134,626.386,93.136,681.321,200.783c-0.069,0.961-0.136,1.921-0.208,2.882
		H178.887c0,0-18.611-183.484,18.645-340.371C244.771,482.296,358.8,637.483,512.331,550.415z"/>
	<g>
		<g>
			<path fill="#412F3D" d="M572.817,376.657h-40.284c-7.853,0-14.218,6.365-14.218,14.218h68.72
				C587.035,383.022,580.67,376.657,572.817,376.657z"/>
		</g>
		<g>
			<path fill="#412F3D" d="M764.76,376.657H610.732c-7.853,0-14.218,6.365-14.218,14.218h182.463
				C778.978,383.022,772.612,376.657,764.76,376.657z"/>
		</g>
		<g>
			<path fill="#7C848C" d="M1075.497,386.136H479.923c-16.795,0-30.411,13.615-30.411,30.411v337.281
				c0,16.796,13.615,30.411,30.411,30.411h595.574c16.795,0,30.411-13.615,30.411-30.411V416.546
				C1105.908,399.751,1092.292,386.136,1075.497,386.136z"/>
		</g>
		<g>
			<path fill="#775C72" d="M586.355,376.657h-40.284c-7.853,0-14.218,6.365-14.218,14.218h68.72
				C600.574,383.022,594.208,376.657,586.355,376.657z"/>
		</g>
		<g>
			<path fill="#775C72" d="M778.298,376.657H624.271c-7.853,0-14.218,6.365-14.218,14.218h182.463
				C792.516,383.022,786.15,376.657,778.298,376.657z"/>
		</g>
		<g>
			<path fill="#F6F6F8" d="M1103.336,386.136H507.762c-16.795,0-30.411,13.615-30.411,30.411v337.281
				c0,16.796,13.615,30.411,30.411,30.411h595.574c16.795,0,30.41-13.615,30.41-30.411V416.546
				C1133.746,399.751,1120.131,386.136,1103.336,386.136z"/>
		</g>
		<path fill="#99D2D6" d="M1083.809,404.539H513.072c-5.332,0-9.654,4.322-9.654,9.654v342.852c0,5.332,4.322,9.654,9.654,9.654
			h570.737c5.332,0,9.654-4.322,9.654-9.654V414.192C1093.463,408.86,1089.141,404.539,1083.809,404.539z"/>
		<g>
			<ellipse fill="#BCC6CE" cx="1113.604" cy="580.447" rx="13.033" ry="21.327"/>
		</g>
		<g>
			<path fill="#BCC6CE" d="M490.385,553.578c-1.559,0-2.822,1.264-2.822,2.822v57.572c0,1.559,1.264,2.822,2.822,2.822
				s2.822-1.264,2.822-2.822V556.4C493.207,554.842,491.943,553.578,490.385,553.578z"/>
		</g>
		<g>
			<circle fill="#BCC6CE" cx="490.385" cy="453.671" r="5.924"/>
		</g>
		<g>
			<circle fill="#BCC6CE" cx="490.385" cy="437.083" r="5.924"/>
		</g>
		<path fill="#444C9F" d="M1093.462,414.19c-0.001-5.331-4.322-9.652-9.653-9.652H513.072c-5.332,0-9.654,4.322-9.654,9.654v20.665
			h590.044V414.19z"/>
		<circle fill="#FDB638" cx="1021.262" cy="419.232" r="6.636"/>
		<circle fill="#F15A23" cx="1038.96" cy="419.232" r="6.637"/>
		<circle fill="#749B3E" cx="1056.658" cy="419.232" r="6.637"/>
		<path fill="#6569B2" d="M503.418,757.044c0,5.332,4.322,9.654,9.654,9.654h110.565V434.857H503.418V757.044z"/>
		<circle fill="#749B3E" cx="564.263" cy="492.148" r="35.416"/>
		<rect x="516.347" y="544.23" fill="#3B3889" width="93.749" height="22.917"/>
		<circle fill="#5F69B1" cx="527.805" cy="555.689" r="7.292"/>
		<rect x="516.347" y="577.563" fill="#F6F6F8" width="93.749" height="22.917"/>
		<circle fill="#799B3A" cx="527.805" cy="589.022" r="7.292"/>
		<rect x="516.347" y="610.896" fill="#3B3889" width="93.749" height="22.917"/>
		<circle fill="#5F69B1" cx="527.805" cy="622.355" r="7.292"/>
		<rect x="516.347" y="644.229" fill="#3B3889" width="93.749" height="22.917"/>
		<circle fill="#5F69B1" cx="527.805" cy="655.688" r="7.292"/>
		<rect x="639.718" y="446.315" fill="#C0E8ED" width="437.911" height="70.684"/>
		<rect x="639.718" y="525.547" fill="#C0E8ED" width="437.911" height="68.346"/>
		<rect x="639.718" y="601.129" fill="#C0E8ED" width="437.911" height="75.367"/>
		<rect x="639.718" y="684.01" fill="#C0E8ED" width="437.911" height="70.07"/>
		<circle fill="#C0C4E2" cx="673.693" cy="641.853" r="19.329"/>
		<rect x="657.342" y="546.476" fill="#C0C4E2" width="32.702" height="32.702"/>
		<polygon fill="#C0C4E2" points="687.754,465.695 665.062,465.695 653.715,485.348 665.062,505 687.754,505 699.101,485.348 		"/>
		<polygon fill="#C0C4E2" points="675.719,705.105 658.281,735.311 693.157,735.311 		"/>
		<rect x="721.311" y="460.499" fill="#9FA5AA" width="81.052" height="8.105"/>
		<rect x="721.311" y="480.762" fill="#F6F6F8" width="148.529" height="4.052"/>
		<rect x="721.311" y="490.894" fill="#F6F6F8" width="148.529" height="4.053"/>
		<rect x="721.311" y="501.025" fill="#F6F6F8" width="148.529" height="4.052"/>
		<rect x="902.669" y="480.762" fill="#F6F6F8" width="110.549" height="4.052"/>
		<rect x="902.669" y="490.894" fill="#F6F6F8" width="110.549" height="4.053"/>
		<rect x="721.311" y="537.498" fill="#9FA5AA" width="81.052" height="8.105"/>
		<rect x="721.311" y="557.761" fill="#F6F6F8" width="148.529" height="4.053"/>
		<rect x="721.311" y="567.893" fill="#F6F6F8" width="148.529" height="4.053"/>
		<rect x="721.311" y="578.023" fill="#F6F6F8" width="148.529" height="4.053"/>
		<rect x="902.669" y="557.761" fill="#F6F6F8" width="110.549" height="4.053"/>
		<rect x="902.669" y="567.893" fill="#F6F6F8" width="110.549" height="4.053"/>
		<rect x="721.311" y="618.55" fill="#9FA5AA" width="81.052" height="8.105"/>
		<rect x="721.311" y="638.812" fill="#F6F6F8" width="148.529" height="4.053"/>
		<rect x="721.311" y="648.944" fill="#F6F6F8" width="148.529" height="4.053"/>
		<rect x="721.311" y="659.075" fill="#F6F6F8" width="148.529" height="4.053"/>
		<rect x="902.669" y="638.812" fill="#F6F6F8" width="110.549" height="4.053"/>
		<rect x="902.669" y="648.944" fill="#F6F6F8" width="110.549" height="4.053"/>
		<rect x="902.669" y="659.075" fill="#F6F6F8" width="110.549" height="4.053"/>
		<rect x="721.311" y="697.575" fill="#9FA5AA" width="81.052" height="8.104"/>
		<rect x="721.311" y="717.838" fill="#F6F6F8" width="148.529" height="4.053"/>
		<rect x="721.311" y="727.97" fill="#F6F6F8" width="148.529" height="4.053"/>
		<rect x="721.311" y="738.101" fill="#F6F6F8" width="148.529" height="4.053"/>
		<rect x="902.669" y="717.838" fill="#F6F6F8" width="64.131" height="4.053"/>
		<rect x="902.669" y="727.97" fill="#F6F6F8" width="64.131" height="4.053"/>
	</g>
	<g>
		<path fill="#981D1F" d="M1077.735,367.381c0,0,57.538-22.541,64.756,27.728c7.218,50.269,26.747,34.967,24.792,61.986
			c-2.653,36.663-80.083,37.903-81.62-3.44c-1.537-41.342,16.214-54.333,3.684-74.989
			C1083.291,368.682,1077.735,367.381,1077.735,367.381z"/>
		<path fill="#E69C74" d="M1132.828,767.325l-0.977-119.571c-0.555-8.844,6.573-16.271,15.433-16.079l0,0
			c8.767,0.19,15.538,7.767,14.745,16.499l1.099,44.011c0.229,7.377-0.344,14.757-1.708,22.01l-4.659,18.323
			c-3.332,11.479-9.698,23.216-10.083,35.163L1132.828,767.325z"/>
		<path fill="#E69C74" d="M1067.038,769.028l5.505-119.448c-0.074-8.861,7.445-15.891,16.282-15.219l0,0
			c8.743,0.664,15.094,8.597,13.829,17.273l-1.289,44.006c-0.17,7.378-1.143,14.716-2.898,21.885l-5.645,18.043
			c-3.949,11.282-10.942,22.657-11.975,34.565L1067.038,769.028z"/>
		<path fill="#3A456D" d="M1079.62,540.552l-10.947,107.709L1066.5,756.25c0,0,23.639,6.707,48.492,2.841
			c0,0,23.831-85.46,7.288-218.994L1079.62,540.552z"/>
		<path fill="#2D3559" d="M1124.402,547.229c-6.091-8.003-30.986,4.352-41.091,1.313c0,0,9.479,126.233,35.548,193.017
			C1123.771,703.43,1130.35,618.824,1124.402,547.229z"/>
		<path fill="#3A456D" d="M1111.675,538.072c0,0-22.713,142.507,15.058,223.854h38.312c0,0,12.993-75.795-2.907-113.104
			c0,0,4.739-30.933-8.992-104.4L1111.675,538.072z"/>
		<path fill="#DEE0E2" d="M1086.388,514.061l16.782-62.095c2.399-8.879-6.295-16.728-14.883-13.435l0,0
			c-5.747,2.203-10.096,7.02-11.701,12.961l-15.092,55.841c-1.857,6.874,2.209,13.952,9.083,15.811l0,0
			C1077.451,525.001,1084.529,520.935,1086.388,514.061z"/>
		<path fill="#E69C74" d="M1020.594,480.679c1.831,5.322-1.373,11.063-6.869,12.273c-5.073,1.116-11.14,1.431-15.782-1.458
			c0,0-5.19-1.124,6.687-3.729c0,0-0.824-8.975-19.482-4.502c0,0,2.995-22.273,30.783-7.934
			C1018.11,476.454,1019.795,478.358,1020.594,480.679L1020.594,480.679z"/>
		<path fill="#DEE0E2" d="M1013.218,495.289l57.644,28.197c8.476,3.573,17.423-3.985,15.316-12.938l0,0
			c-1.41-5.991-5.598-10.948-11.269-13.339l-55.713-20.055L1013.218,495.289z"/>
		<path fill="#E69C74" d="M1121.142,416.12c0,0-3.502,17.204,2.841,22.489c0,0-15.856,7.047-26.779,0c0,0,2.467-13.607,0-22.131
			L1121.142,416.12z"/>
		<path fill="#ED581E" d="M1083.389,511.897h56.729l4.685-58.462c0.557-9.575-7.058-17.645-16.648-17.645h-32.8
			c-9.668,0-17.311,8.194-16.637,17.838L1083.389,511.897z"/>
		<path fill="#E69C74" d="M1110.593,449.497c7.395,0,13.39-5.995,13.39-13.39c0-0.107-0.014-0.211-0.017-0.317h-26.746
			c-0.003,0.106-0.017,0.21-0.017,0.317C1097.203,443.502,1103.198,449.497,1110.593,449.497z"/>
		<polygon fill="#ED581E" points="1077.735,551.361 1143.891,551.361 1139.604,511.897 1082.875,511.897 		"/>
		<path fill="#824A2D" d="M1132.828,767.325c0,0-4.949,8.619-36.243,14.474c0,0-4.18,5.596,7.511,4.466
			c11.691-1.129,43.256-4.177,43.256-4.177l-0.674-14.407L1132.828,767.325z"/>
		<path fill="#824A2D" d="M1067.038,769.028c0,0-5.409,8.339-36.975,12.488c0,0-4.477,5.36,7.258,4.867
			c11.735-0.494,43.419-1.827,43.419-1.827l0.107-14.423L1067.038,769.028z"/>
		<path fill="#E69C74" d="M1094.598,375.624c-7.766,3.119-12.711,10.363-13.628,18.52l-0.013-0.01c0,0-1.326,9.145-8.096,10.724
			c0,0,3.608,7.094,7.37,6.533c0,0,6.667,26.686,32.312,8.919c11.558-4.642,16.908-18.408,11.952-30.747
			C1119.541,377.223,1106.154,370.982,1094.598,375.624z"/>
		<path fill="#F2F2F2" d="M1121.88,435.79c0,0-21.92,106.473-3.128,138.419c0,0,26.079,15.151,48.531,3.225
			c0,0-24.042-30.255-23.393-130.485C1143.891,446.949,1146.556,432.971,1121.88,435.79z"/>
		<path fill="#B7B7B7" d="M1131.146,449.497c0,0,2.658,44.014-19.672,67.081c-0.199,4.301-0.314,8.567-0.329,12.744
			c2.106,10.362,11.172,22.696,43.612,18.425c-5.079-17.957-9.945-45.272-10.757-85.065
			C1136.629,454.688,1131.146,449.497,1131.146,449.497z"/>
		<path fill="#F2F2F2" d="M1095.354,435.79c0,0-0.067,111.702-20.424,143.33c0,0-6.172-123.173,7.38-138.516
			C1082.31,440.604,1087.579,434.496,1095.354,435.79z"/>
		<path fill="#981D1F" d="M1087.25,380.57c0,0,11.407,54.027,34.63,55.22c0,0,14.922-36.872,0-55.22
			c-14.923-18.348-41.937-17.878-46.517-11.183c-4.581,6.694-4.782,16.014,6.946,19.106
			C1082.31,388.493,1084.537,382.945,1087.25,380.57z"/>
		<path fill="#981D1F" d="M1081.761,415.463c0.575,1.228,1.338,2.606,2.31,3.967c4.984-0.619,7.148-5.294,7.148-5.294
			C1087.58,416.483,1081.768,415.464,1081.761,415.463z"/>
		<path fill="#F2F2F2" d="M1153.233,516.206l-5.497-64.088c-0.785-9.164-11.642-13.561-18.584-7.526l0,0
			c-4.645,4.038-7.08,10.052-6.555,16.185l4.943,57.633c0.608,7.095,6.854,12.353,13.948,11.744l0,0
			C1148.584,529.545,1153.842,523.301,1153.233,516.206z"/>
		<path fill="#E69C74" d="M1085.906,539.245c0.069-5.627-4.772-10.073-10.371-9.499c-5.168,0.531-11.026,2.136-14.529,6.334
			c0,0-4.576,2.695,7.52,1.444c0,0,2.032,8.78-17.087,10.386c0,0,9.829,20.211,31.718-2.121
			C1084.874,544.036,1085.877,541.699,1085.906,539.245L1085.906,539.245z"/>
		<path fill="#F2F2F2" d="M1084.887,545.646l61.729-17.53c8.693-3.004,10.302-14.606,2.752-19.86l0,0
			c-5.051-3.517-11.479-4.407-17.296-2.397l-54.853,22.301L1084.887,545.646z"/>
	</g>
	<g>
		<path fill="#342334" d="M297.048,769.979c0,0,5.953,9.136,40.588,13.617c0,0,4.922,5.871-7.951,5.355
			c-12.874-0.516-47.633-1.908-47.633-1.908l-0.15-15.82L297.048,769.979z"/>
		<path fill="#342334" d="M401.246,768.812c0,0,6.313,8.89,41.101,11.982c0,0,5.154,5.669-7.73,5.669s-47.671,0-47.671,0
			l-0.783-15.803L401.246,768.812z"/>
		<path fill="#342334" d="M378.454,544.179c0,0,18.482,165.355,24.667,224.881c0,0-0.463,6.786-17.221,3.478
			c0,0-57.851-137.727-44.547-234.512L378.454,544.179z"/>
		<path fill="#442C41" d="M362.849,543.377l-64.631,228.669c0,0-1.688,5.592-16.447,0c0,0,7.184-160.038,16.042-234.021
			L362.849,543.377z"/>
		<path fill="#84191F" d="M420.48,527.742l12.6-12.908l-45.232-45.082c-5.753-5.734-15.899-4.569-22.296,2.561l0,0
			c-6.536,7.285-6.436,17.743,0.216,22.716L420.48,527.742z"/>
		<path fill="#991D1F" d="M380.594,407.499c0,0,15.979-1.734,11.249,36.282c-3.848,30.918-4.881,87.005-12.762,106.012
			c0,0-29.248,18.666-81.379-10.333c0,0-3.047-27.407,8.012-44.479c15.45-23.846,15.403-34.347,12.364-58.065
			c0,0-7.135-45.602,27.041-36.317L380.594,407.499z"/>
		<path fill="#84191F" d="M380.582,500.6c-31.491-16.138-32.639-77.249-32.639-77.249c-13.606-14.729-21.421-13.607-29.649-5.75
			c-1.357,7.465-0.728,15.042-0.386,18.01c0.001,0.007,0.001,0.014,0.002,0.021c0.012,0.103,0.023,0.199,0.035,0.291
			c0.003,0.025,0.006,0.051,0.009,0.076c0.009,0.076,0.019,0.149,0.027,0.216c0.003,0.027,0.007,0.052,0.01,0.078
			c0.007,0.057,0.015,0.112,0.021,0.162c0.005,0.034,0.009,0.065,0.013,0.096c0.005,0.036,0.01,0.073,0.014,0.103
			c0.005,0.034,0.009,0.063,0.013,0.09c0.002,0.016,0.005,0.035,0.007,0.049c0.012,0.081,0.019,0.124,0.019,0.124
			c0.274,2.139,0.522,4.167,0.739,6.11c0.09,0.814,0.175,1.614,0.253,2.399c0.123,1.236,0.231,2.44,0.319,3.613
			c0.185,2.462,0.286,4.795,0.279,7.051c-0.003,1.128-0.034,2.237-0.094,3.333c-0.603,10.963-4.205,20.653-13.861,35.558
			c-0.013,0.02-0.025,0.042-0.038,0.062c-7.048,10.926-8.339,26.046-8.357,35.526c7.702,2.295,20.36-16.175,28.574-14.101
			C358.459,524.693,380.582,500.6,380.582,500.6z"/>
		<path fill="#84191F" d="M345.116,400.617c1.094,4.507,5.972,17.929,26.565,29.389c0,0,6.311-8.484,8.901-22.443
			c-1.225-0.521-2.522-0.924-3.89-1.174L345.116,400.617z"/>
		<path fill="#E69C74" d="M350.006,401.51c0,0,1.322,13.241,20.989,24.185c0,0,5.37-7.198,7.204-18.949
			c-0.495-0.134-0.992-0.264-1.506-0.358L350.006,401.51z"/>
		<path fill="#E69C74" d="M357.005,380.353c0,0,0.386,19.256-7.501,23.708c0,0,15.72,10.731,28.897,5.282
			c0,0,0.022-15.17,4.365-23.882L357.005,380.353z"/>
		<path fill="#E69C74" d="M382.867,336.696c11.665,0.064,17.6,20.056,16.194,30.14c0,0,4.034,2.368,4.139,13.517
			c0,0-3.628-1.512-6.037,0c0,0,0.337,30.297-28.663,12.123c-12.898-4.503-22.501-25.223-17.693-38.995
			C355.614,339.708,369.205,336.621,382.867,336.696z"/>
		<path fill="#1C224F" d="M382.038,360.94c-1.386-0.271-2.84-0.67-4.363-1.22c0,0,4.299,28.227-21.119,28.38
			c0,0-20.975-19.946-10.422-42.437c4.453-9.491,34.149-24.997,49.287-12.272C407.714,343.724,397.8,364.019,382.038,360.94z"/>
		<path fill="#E69C74" d="M375.94,375.047c0.013-0.07,0.021-0.136,0.024-0.208c0.037-0.999,0.035-8.636-8.807-7.164
			c-8.783,1.463-2.568,17.733,4.708,20.152c0.873,0.291,1.795-0.305,1.961-1.209L375.94,375.047z"/>
		<path fill="#94241E" d="M396.564,385.879c-3.392-0.495-7.67-1.373-9.902-2.832c0,0,0.774,5.037,8.806,6.689
			C395.964,388.425,396.316,387.102,396.564,385.879z"/>
		<path fill="#EFEFEF" d="M366.962,423.256l-0.666-6.501c0,0-8.813-13.878-16.291-15.245
			C350.006,401.51,355.218,417.508,366.962,423.256z"/>
		<path fill="#FFFFFF" d="M378.198,406.746c0,0-8.221,10.185-7.204,18.949C370.995,425.695,378.059,415.793,378.198,406.746z"/>
		<path fill="#FFFFFF" d="M366.297,416.755l-0.417,0.14c-4.335,1.453-7.748,4.839-9.234,9.163l-0.219,0.638
			c0,0-17.476-27.343-3.542-26.079C352.885,400.617,359.264,404.113,366.297,416.755z"/>
		<path fill="#FFFFFF" d="M371.881,418.412c0,0,7.661,0.397,8.13,7.284c0,0,8.703-12.486-1.502-19.595
			C378.509,406.101,372.58,414.461,371.881,418.412z"/>
		<path fill="#84191F" d="M431.314,509.232c0,0,9.601,4.752,10.6,11.211c0,0-6.145,15.137-11.533,15.56
			c0,0-6.825-0.967-11.827-7.668C418.554,528.335,427.595,509.806,431.314,509.232z"/>
		<path fill="#BC8A19" d="M542.965,488.451l-201.292,40.501c-3.226-5.337-9.544-8.355-16.011-7.055l-6.958,1.4
			c-11.943-26.562-35.958-42.884-59.57-38.133c-28.718,5.778-45.95,40.523-38.488,77.606c7.461,37.082,36.79,62.46,65.508,56.682
			c23.613-4.752,39.446-29.09,40.187-58.205l6.958-1.399c6.466-1.302,11.126-6.528,12.037-12.698l111.029-22.34l3.014,14.979
			c1.118,5.559,6.531,9.157,12.089,8.039c5.559-1.118,9.158-6.531,8.04-12.089l-3.014-14.979l8.072-1.624l3.014,14.979
			c1.118,5.558,6.531,9.157,12.089,8.039c5.558-1.118,9.157-6.531,8.039-12.089l-3.014-14.98l10.483-2.108l4.786,23.785
			c1.118,5.559,6.531,9.157,12.089,8.039l0,0c5.559-1.118,9.158-6.53,8.039-12.089l-4.786-23.786l11.322-2.277L542.965,488.451z
			 M281.564,596.646c-18.963,3.815-38.33-12.942-43.257-37.429c-4.927-24.487,6.452-47.431,25.416-51.246
			c17.339-3.489,34.979,10.245,41.646,31.337c0.041,0.709,0.114,1.422,0.258,2.139l1.634,8.121c0.144,0.717,0.352,1.402,0.589,2.072
			C309.859,573.67,298.903,593.158,281.564,596.646z"/>
		<path fill="#EDB421" d="M533.898,500.962l11.133-2.24l-2.066-10.271l-201.292,40.501c-3.226-5.337-9.544-8.355-16.011-7.055
			l-6.958,1.4c-11.943-26.562-35.958-42.884-59.57-38.133c-27.118,5.457-43.982,36.745-39.496,71.438
			c8.036,36.096,36.86,60.567,65.11,54.884c23.612-4.751,39.445-29.09,40.186-58.204l6.958-1.4
			c6.466-1.301,11.125-6.527,12.036-12.698l111.029-22.339l3.014,14.979c1.118,5.559,6.531,9.158,12.089,8.04
			c4.898-0.986,8.27-5.307,8.238-10.122l-1.807-8.981l0.189-0.038l-1.595-7.928l8.073-1.624l3.014,14.979
			c1.119,5.559,6.531,9.158,12.089,8.039c4.898-0.985,8.27-5.306,8.238-10.121l-1.807-8.982l0.189-0.038l-1.595-7.927l10.484-2.109
			l4.786,23.785c1.118,5.559,6.531,9.158,12.089,8.04c4.898-0.985,8.27-5.307,8.238-10.122l-3.579-17.788l0.189-0.038
			L533.898,500.962z M281.564,596.646c-18.963,3.815-38.331-12.942-43.257-37.429c-0.362-1.799-0.625-3.587-0.814-5.361
			c-0.213-0.859-0.414-1.726-0.591-2.604c-4.927-24.486,6.452-47.431,25.416-51.246c17.339-3.488,34.979,10.246,41.646,31.338
			c0.041,0.709,0.114,1.422,0.258,2.138l1.634,8.122c0.144,0.716,0.353,1.401,0.589,2.071c0.083,0.905,0.135,1.805,0.174,2.701
			l0.643,3.192c0.144,0.717,0.352,1.402,0.589,2.072C309.858,573.67,298.903,593.158,281.564,596.646z"/>
		<path fill="#991D1F" d="M299.054,483.403l48.461-59.397c6.93-8.494-1.005-23.133-13.583-25.059l0,0
			c-8.417-1.289-16.136,1.31-20.773,6.993l-43.581,53.415c-5.365,6.576-3.116,17.29,5.023,23.93l0,0
			C282.742,489.926,293.689,489.979,299.054,483.403z"/>
		<path fill="#E69C74" d="M311.784,539.397c0,0,15.647,11.802,14.44,24.309c0,0,1.424,5.649-6.924-4.755
			c0,0-8.419,5.184,5.067,21.342c0,0-25.271,8.56-22.61-30.745l-4.391-5.485l11.502-7.976L311.784,539.397z"/>
		<path fill="#991D1F" d="M308.631,531.114l-18.238,7.205l-25.64-59.466c-2.814-8.153,3.303-17.376,13.44-20.268l0,0
			c10.358-2.955,20.582,1.921,22.207,10.59L308.631,531.114z"/>
		<path fill="#84191F" d="M308.822,523.643c0,0,6.586,9.84,3.987,16.579c0,0-14.221,11.124-19.618,8.562
			c0,0-6.009-4.683-7.113-13.859C286.078,534.925,304.942,522.145,308.822,523.643z"/>
		<path fill="#E69C74" d="M434.567,533.265c0,0,26.966,4.036,25.092-9.084C457.785,511.062,435.479,523.372,434.567,533.265z"/>
	</g>
	<g>
		<g>
			
				<rect x="824.34" y="527.105" transform="matrix(0.1778 0.9841 -0.9841 0.1778 1219.1411 -387.7212)" fill="#2D3559" width="34.526" height="17.264"/>
		</g>
	</g>
	<g>
		<path fill="#5D97BD" d="M962.574,510.784H734.712c-8.892,0-16.099,7.208-16.099,16.099v125.489
			c0,8.892,7.207,16.099,16.099,16.099h227.862c8.891,0,16.099-7.207,16.099-16.099V526.883
			C978.673,517.992,971.465,510.784,962.574,510.784z"/>
		<rect x="725.218" y="529.772" fill="#FFFFFF" width="246.024" height="128.504"/>
		<rect x="725.218" y="631.319" fill="#F1EFF2" width="246.024" height="26.957"/>
		<polygon fill="#EDB421" points="771.507,557.83 750.499,594.218 792.516,594.218 		"/>
		<rect x="825.738" y="555.302" fill="#DBDBDB" width="68.523" height="9.081"/>
		<path fill="#444C9F" d="M948.567,637.843h-34.492c-3.142,0-5.688,2.546-5.688,5.688v2.936c0,3.142,2.547,5.688,5.688,5.688h34.492
			c3.142,0,5.688-2.546,5.688-5.688v-2.936C954.256,640.389,951.709,637.843,948.567,637.843z"/>
		<rect x="826.253" y="579.704" fill="#F1EFF2" width="126.782" height="4.053"/>
		<rect x="826.253" y="591.998" fill="#F1EFF2" width="126.782" height="4.053"/>
	</g>
	<g>
		<g>
			<path fill="#249673" d="M755.74,176.459h9.717v-21.218c0-22.268,18.116-40.384,40.384-40.384
				c22.269,0,40.385,18.117,40.385,40.384v21.218h9.717v-21.218c0-27.625-22.476-50.101-50.102-50.101
				c-27.625,0-50.101,22.476-50.101,50.101V176.459z"/>
		</g>
		<g>
			<path fill="#32CA9E" d="M750.072,176.459h9.716v-21.218c0-22.268,18.117-40.384,40.385-40.384
				c22.269,0,40.385,18.117,40.385,40.384v21.218h9.717v-21.218c0-27.625-22.476-50.101-50.102-50.101
				c-27.625,0-50.101,22.476-50.101,50.101V176.459z"/>
		</g>
		<path fill="#3B3B72" d="M750.347,168.856h116.987c6.912,0,12.516,5.604,12.516,12.516v58.494
			c0,39.217-31.792,71.009-71.009,71.009h-0.001c-39.217,0-71.009-31.792-71.009-71.009v-58.494
			C737.831,174.46,743.435,168.856,750.347,168.856z"/>
		<path fill="#545098" d="M737.392,168.856h116.986c6.913,0,12.517,5.604,12.517,12.516v58.494c0,39.217-31.793,71.009-71.01,71.009
			l0,0c-39.217,0-71.009-31.792-71.009-71.009v-58.494C724.876,174.46,730.479,168.856,737.392,168.856z"/>
		<path fill="#3B3B72" d="M783.926,223.174c0-6.604,5.354-11.959,11.959-11.959s11.959,5.354,11.959,11.959
			c0,4.8-2.835,8.928-6.916,10.832v24.843c0,2.785-2.258,5.043-5.043,5.043s-5.043-2.258-5.043-5.043v-24.843
			C786.761,232.102,783.926,227.974,783.926,223.174z"/>
		<path fill="#1E1E3A" d="M789.392,223.174c0-5.663,3.94-10.395,9.226-11.633c5.286,1.238,9.227,5.97,9.227,11.633
			c0,4.8-2.835,8.928-6.916,10.832v24.843c0,1.776-0.923,3.33-2.311,4.229c-1.387-0.898-2.31-2.453-2.31-4.229v-24.843
			C792.227,232.102,789.392,227.974,789.392,223.174z"/>
	</g>
</g>
</svg>
